<mxfile host="app.diagrams.net" modified="2023-11-06T15:20:57.841Z" agent="Mozilla/5.0 (Windows NT 10.0; Win64; x64) AppleWebKit/537.36 (KHTML, like Gecko) Chrome/119.0.0.0 Safari/537.36" etag="MoaYZGuwS1DXTamrP9Mr" version="22.0.8" type="device">
  <diagram name="Page-1" id="qn7YPqqrGNcqjObkE3kq">
    <mxGraphModel dx="2269" dy="2403" grid="1" gridSize="10" guides="1" tooltips="1" connect="1" arrows="1" fold="1" page="1" pageScale="1" pageWidth="850" pageHeight="1100" math="0" shadow="0">
      <root>
        <mxCell id="0" />
        <mxCell id="1" parent="0" />
        <mxCell id="LAP7pbj2NF0N0nWJ8ouf-93" value="" style="edgeStyle=orthogonalEdgeStyle;rounded=0;orthogonalLoop=1;jettySize=auto;html=1;endArrow=none;endFill=0;startArrow=ERmandOne;startFill=0;" edge="1" parent="1" source="LAP7pbj2NF0N0nWJ8ouf-91" target="LAP7pbj2NF0N0nWJ8ouf-92">
          <mxGeometry relative="1" as="geometry" />
        </mxCell>
        <mxCell id="LAP7pbj2NF0N0nWJ8ouf-195" style="rounded=0;orthogonalLoop=1;jettySize=auto;html=1;exitX=0;exitY=0.25;exitDx=0;exitDy=0;entryX=1;entryY=0.5;entryDx=0;entryDy=0;" edge="1" parent="1" source="LAP7pbj2NF0N0nWJ8ouf-91" target="LAP7pbj2NF0N0nWJ8ouf-177">
          <mxGeometry relative="1" as="geometry" />
        </mxCell>
        <mxCell id="LAP7pbj2NF0N0nWJ8ouf-196" style="rounded=0;orthogonalLoop=1;jettySize=auto;html=1;exitX=0;exitY=0.75;exitDx=0;exitDy=0;" edge="1" parent="1" source="LAP7pbj2NF0N0nWJ8ouf-91" target="LAP7pbj2NF0N0nWJ8ouf-181">
          <mxGeometry relative="1" as="geometry" />
        </mxCell>
        <mxCell id="LAP7pbj2NF0N0nWJ8ouf-197" style="rounded=0;orthogonalLoop=1;jettySize=auto;html=1;exitX=0.25;exitY=0;exitDx=0;exitDy=0;entryX=1;entryY=1;entryDx=0;entryDy=0;" edge="1" parent="1" source="LAP7pbj2NF0N0nWJ8ouf-91" target="LAP7pbj2NF0N0nWJ8ouf-191">
          <mxGeometry relative="1" as="geometry" />
        </mxCell>
        <mxCell id="LAP7pbj2NF0N0nWJ8ouf-198" style="rounded=0;orthogonalLoop=1;jettySize=auto;html=1;exitX=0.5;exitY=0;exitDx=0;exitDy=0;entryX=0.5;entryY=1;entryDx=0;entryDy=0;" edge="1" parent="1" source="LAP7pbj2NF0N0nWJ8ouf-91" target="LAP7pbj2NF0N0nWJ8ouf-182">
          <mxGeometry relative="1" as="geometry" />
        </mxCell>
        <mxCell id="LAP7pbj2NF0N0nWJ8ouf-199" style="rounded=0;orthogonalLoop=1;jettySize=auto;html=1;exitX=1;exitY=0;exitDx=0;exitDy=0;entryX=0;entryY=1;entryDx=0;entryDy=0;" edge="1" parent="1" source="LAP7pbj2NF0N0nWJ8ouf-91" target="LAP7pbj2NF0N0nWJ8ouf-183">
          <mxGeometry relative="1" as="geometry" />
        </mxCell>
        <mxCell id="LAP7pbj2NF0N0nWJ8ouf-200" style="rounded=0;orthogonalLoop=1;jettySize=auto;html=1;exitX=1;exitY=1;exitDx=0;exitDy=0;entryX=0;entryY=0;entryDx=0;entryDy=0;" edge="1" parent="1" source="LAP7pbj2NF0N0nWJ8ouf-91" target="LAP7pbj2NF0N0nWJ8ouf-192">
          <mxGeometry relative="1" as="geometry" />
        </mxCell>
        <mxCell id="LAP7pbj2NF0N0nWJ8ouf-201" style="rounded=0;orthogonalLoop=1;jettySize=auto;html=1;exitX=0.5;exitY=1;exitDx=0;exitDy=0;entryX=0.5;entryY=0;entryDx=0;entryDy=0;" edge="1" parent="1" source="LAP7pbj2NF0N0nWJ8ouf-91" target="LAP7pbj2NF0N0nWJ8ouf-194">
          <mxGeometry relative="1" as="geometry" />
        </mxCell>
        <mxCell id="LAP7pbj2NF0N0nWJ8ouf-202" style="rounded=0;orthogonalLoop=1;jettySize=auto;html=1;exitX=0.25;exitY=1;exitDx=0;exitDy=0;entryX=1;entryY=0;entryDx=0;entryDy=0;" edge="1" parent="1" source="LAP7pbj2NF0N0nWJ8ouf-91" target="LAP7pbj2NF0N0nWJ8ouf-193">
          <mxGeometry relative="1" as="geometry" />
        </mxCell>
        <mxCell id="LAP7pbj2NF0N0nWJ8ouf-91" value="&lt;b style=&quot;border-color: var(--border-color);&quot;&gt;&lt;font style=&quot;border-color: var(--border-color); font-size: 20px;&quot;&gt;NGOs&lt;/font&gt;&lt;/b&gt;" style="rounded=0;whiteSpace=wrap;html=1;" vertex="1" parent="1">
          <mxGeometry x="160.5" y="-350" width="120" height="40" as="geometry" />
        </mxCell>
        <mxCell id="LAP7pbj2NF0N0nWJ8ouf-95" value="" style="edgeStyle=orthogonalEdgeStyle;rounded=0;orthogonalLoop=1;jettySize=auto;html=1;endArrow=ERoneToMany;endFill=0;" edge="1" parent="1" source="LAP7pbj2NF0N0nWJ8ouf-92" target="LAP7pbj2NF0N0nWJ8ouf-94">
          <mxGeometry relative="1" as="geometry" />
        </mxCell>
        <mxCell id="LAP7pbj2NF0N0nWJ8ouf-92" value="have" style="rhombus;whiteSpace=wrap;html=1;rounded=0;" vertex="1" parent="1">
          <mxGeometry x="389.25" y="-360" width="60" height="60" as="geometry" />
        </mxCell>
        <mxCell id="LAP7pbj2NF0N0nWJ8ouf-99" value="" style="edgeStyle=orthogonalEdgeStyle;rounded=0;orthogonalLoop=1;jettySize=auto;html=1;entryX=0.5;entryY=1;entryDx=0;entryDy=0;endArrow=none;endFill=0;startArrow=ERzeroToOne;startFill=0;" edge="1" parent="1" source="LAP7pbj2NF0N0nWJ8ouf-94" target="LAP7pbj2NF0N0nWJ8ouf-98">
          <mxGeometry relative="1" as="geometry">
            <mxPoint x="640.5" y="-440" as="targetPoint" />
          </mxGeometry>
        </mxCell>
        <mxCell id="LAP7pbj2NF0N0nWJ8ouf-228" style="rounded=0;orthogonalLoop=1;jettySize=auto;html=1;exitX=0.5;exitY=1;exitDx=0;exitDy=0;entryX=0.5;entryY=0;entryDx=0;entryDy=0;" edge="1" parent="1" source="LAP7pbj2NF0N0nWJ8ouf-94" target="LAP7pbj2NF0N0nWJ8ouf-185">
          <mxGeometry relative="1" as="geometry" />
        </mxCell>
        <mxCell id="LAP7pbj2NF0N0nWJ8ouf-229" style="rounded=0;orthogonalLoop=1;jettySize=auto;html=1;exitX=0;exitY=1;exitDx=0;exitDy=0;entryX=0.638;entryY=0.04;entryDx=0;entryDy=0;entryPerimeter=0;" edge="1" parent="1" source="LAP7pbj2NF0N0nWJ8ouf-94" target="LAP7pbj2NF0N0nWJ8ouf-187">
          <mxGeometry relative="1" as="geometry" />
        </mxCell>
        <mxCell id="LAP7pbj2NF0N0nWJ8ouf-235" style="rounded=0;orthogonalLoop=1;jettySize=auto;html=1;exitX=0.75;exitY=1;exitDx=0;exitDy=0;entryX=0.5;entryY=0;entryDx=0;entryDy=0;" edge="1" parent="1" source="LAP7pbj2NF0N0nWJ8ouf-94" target="LAP7pbj2NF0N0nWJ8ouf-234">
          <mxGeometry relative="1" as="geometry" />
        </mxCell>
        <mxCell id="LAP7pbj2NF0N0nWJ8ouf-237" style="rounded=0;orthogonalLoop=1;jettySize=auto;html=1;exitX=0.75;exitY=0;exitDx=0;exitDy=0;" edge="1" parent="1" source="LAP7pbj2NF0N0nWJ8ouf-94" target="LAP7pbj2NF0N0nWJ8ouf-186">
          <mxGeometry relative="1" as="geometry" />
        </mxCell>
        <mxCell id="LAP7pbj2NF0N0nWJ8ouf-239" style="rounded=0;orthogonalLoop=1;jettySize=auto;html=1;exitX=1;exitY=0;exitDx=0;exitDy=0;entryX=0;entryY=0.5;entryDx=0;entryDy=0;" edge="1" parent="1" source="LAP7pbj2NF0N0nWJ8ouf-94" target="LAP7pbj2NF0N0nWJ8ouf-180">
          <mxGeometry relative="1" as="geometry" />
        </mxCell>
        <mxCell id="LAP7pbj2NF0N0nWJ8ouf-240" style="rounded=0;orthogonalLoop=1;jettySize=auto;html=1;exitX=0.25;exitY=0;exitDx=0;exitDy=0;entryX=1;entryY=1;entryDx=0;entryDy=0;" edge="1" parent="1" source="LAP7pbj2NF0N0nWJ8ouf-94" target="LAP7pbj2NF0N0nWJ8ouf-188">
          <mxGeometry relative="1" as="geometry" />
        </mxCell>
        <mxCell id="LAP7pbj2NF0N0nWJ8ouf-272" style="rounded=0;orthogonalLoop=1;jettySize=auto;html=1;exitX=1;exitY=1;exitDx=0;exitDy=0;entryX=0;entryY=0.5;entryDx=0;entryDy=0;" edge="1" parent="1" source="LAP7pbj2NF0N0nWJ8ouf-94" target="LAP7pbj2NF0N0nWJ8ouf-184">
          <mxGeometry relative="1" as="geometry" />
        </mxCell>
        <mxCell id="LAP7pbj2NF0N0nWJ8ouf-94" value="&lt;b&gt;&lt;font style=&quot;font-size: 20px;&quot;&gt;Volunteers&lt;/font&gt;&lt;/b&gt;" style="whiteSpace=wrap;html=1;rounded=0;" vertex="1" parent="1">
          <mxGeometry x="565.5" y="-350" width="150" height="40" as="geometry" />
        </mxCell>
        <mxCell id="LAP7pbj2NF0N0nWJ8ouf-101" value="" style="edgeStyle=orthogonalEdgeStyle;rounded=0;orthogonalLoop=1;jettySize=auto;html=1;endArrow=ERzeroToMany;endFill=0;" edge="1" parent="1" source="LAP7pbj2NF0N0nWJ8ouf-98" target="LAP7pbj2NF0N0nWJ8ouf-100">
          <mxGeometry relative="1" as="geometry" />
        </mxCell>
        <mxCell id="LAP7pbj2NF0N0nWJ8ouf-98" value="deliver" style="rhombus;whiteSpace=wrap;html=1;rounded=0;" vertex="1" parent="1">
          <mxGeometry x="610" y="-520" width="60" height="60" as="geometry" />
        </mxCell>
        <mxCell id="LAP7pbj2NF0N0nWJ8ouf-103" value="" style="edgeStyle=orthogonalEdgeStyle;rounded=0;orthogonalLoop=1;jettySize=auto;html=1;endArrow=none;endFill=0;startArrow=ERzeroToMany;startFill=0;" edge="1" parent="1" source="LAP7pbj2NF0N0nWJ8ouf-100" target="LAP7pbj2NF0N0nWJ8ouf-102">
          <mxGeometry relative="1" as="geometry" />
        </mxCell>
        <mxCell id="LAP7pbj2NF0N0nWJ8ouf-107" value="" style="edgeStyle=orthogonalEdgeStyle;rounded=0;orthogonalLoop=1;jettySize=auto;html=1;endArrow=none;endFill=0;startArrow=ERzeroToMany;startFill=0;" edge="1" parent="1" source="LAP7pbj2NF0N0nWJ8ouf-100" target="LAP7pbj2NF0N0nWJ8ouf-106">
          <mxGeometry relative="1" as="geometry" />
        </mxCell>
        <mxCell id="LAP7pbj2NF0N0nWJ8ouf-263" style="rounded=0;orthogonalLoop=1;jettySize=auto;html=1;exitX=0.25;exitY=0;exitDx=0;exitDy=0;entryX=0.5;entryY=1;entryDx=0;entryDy=0;" edge="1" parent="1" source="LAP7pbj2NF0N0nWJ8ouf-100" target="LAP7pbj2NF0N0nWJ8ouf-254">
          <mxGeometry relative="1" as="geometry" />
        </mxCell>
        <mxCell id="LAP7pbj2NF0N0nWJ8ouf-264" style="rounded=0;orthogonalLoop=1;jettySize=auto;html=1;exitX=0.75;exitY=0;exitDx=0;exitDy=0;entryX=0.5;entryY=1;entryDx=0;entryDy=0;" edge="1" parent="1" source="LAP7pbj2NF0N0nWJ8ouf-100" target="LAP7pbj2NF0N0nWJ8ouf-256">
          <mxGeometry relative="1" as="geometry" />
        </mxCell>
        <mxCell id="LAP7pbj2NF0N0nWJ8ouf-265" style="rounded=0;orthogonalLoop=1;jettySize=auto;html=1;exitX=1;exitY=0;exitDx=0;exitDy=0;entryX=0;entryY=1;entryDx=0;entryDy=0;" edge="1" parent="1" source="LAP7pbj2NF0N0nWJ8ouf-100" target="LAP7pbj2NF0N0nWJ8ouf-255">
          <mxGeometry relative="1" as="geometry" />
        </mxCell>
        <mxCell id="LAP7pbj2NF0N0nWJ8ouf-266" style="rounded=0;orthogonalLoop=1;jettySize=auto;html=1;exitX=1;exitY=0.5;exitDx=0;exitDy=0;entryX=0;entryY=0.5;entryDx=0;entryDy=0;" edge="1" parent="1" source="LAP7pbj2NF0N0nWJ8ouf-100" target="LAP7pbj2NF0N0nWJ8ouf-257">
          <mxGeometry relative="1" as="geometry" />
        </mxCell>
        <mxCell id="LAP7pbj2NF0N0nWJ8ouf-267" style="rounded=0;orthogonalLoop=1;jettySize=auto;html=1;exitX=1;exitY=1;exitDx=0;exitDy=0;entryX=0;entryY=0.5;entryDx=0;entryDy=0;" edge="1" parent="1" source="LAP7pbj2NF0N0nWJ8ouf-100" target="LAP7pbj2NF0N0nWJ8ouf-259">
          <mxGeometry relative="1" as="geometry" />
        </mxCell>
        <mxCell id="LAP7pbj2NF0N0nWJ8ouf-269" style="rounded=0;orthogonalLoop=1;jettySize=auto;html=1;exitX=0.25;exitY=1;exitDx=0;exitDy=0;entryX=1;entryY=0;entryDx=0;entryDy=0;" edge="1" parent="1" source="LAP7pbj2NF0N0nWJ8ouf-100" target="LAP7pbj2NF0N0nWJ8ouf-261">
          <mxGeometry relative="1" as="geometry" />
        </mxCell>
        <mxCell id="LAP7pbj2NF0N0nWJ8ouf-274" style="rounded=0;orthogonalLoop=1;jettySize=auto;html=1;exitX=0;exitY=0;exitDx=0;exitDy=0;entryX=1;entryY=1;entryDx=0;entryDy=0;" edge="1" parent="1" source="LAP7pbj2NF0N0nWJ8ouf-100" target="LAP7pbj2NF0N0nWJ8ouf-273">
          <mxGeometry relative="1" as="geometry" />
        </mxCell>
        <mxCell id="LAP7pbj2NF0N0nWJ8ouf-100" value="&lt;b style=&quot;border-color: var(--border-color);&quot;&gt;&lt;font style=&quot;border-color: var(--border-color); font-size: 20px;&quot;&gt;Food_items&lt;/font&gt;&lt;/b&gt;" style="whiteSpace=wrap;html=1;rounded=0;" vertex="1" parent="1">
          <mxGeometry x="580" y="-680" width="120" height="40" as="geometry" />
        </mxCell>
        <mxCell id="LAP7pbj2NF0N0nWJ8ouf-105" value="" style="edgeStyle=orthogonalEdgeStyle;rounded=0;orthogonalLoop=1;jettySize=auto;html=1;endArrow=ERzeroToOne;endFill=0;" edge="1" parent="1" source="LAP7pbj2NF0N0nWJ8ouf-102" target="LAP7pbj2NF0N0nWJ8ouf-104">
          <mxGeometry relative="1" as="geometry" />
        </mxCell>
        <mxCell id="LAP7pbj2NF0N0nWJ8ouf-102" value="receive" style="rhombus;whiteSpace=wrap;html=1;rounded=0;" vertex="1" parent="1">
          <mxGeometry x="610" y="-850" width="60" height="60" as="geometry" />
        </mxCell>
        <mxCell id="LAP7pbj2NF0N0nWJ8ouf-130" style="rounded=0;orthogonalLoop=1;jettySize=auto;html=1;exitX=0.389;exitY=0.027;exitDx=0;exitDy=0;entryX=0.5;entryY=1;entryDx=0;entryDy=0;exitPerimeter=0;" edge="1" parent="1" source="LAP7pbj2NF0N0nWJ8ouf-104" target="LAP7pbj2NF0N0nWJ8ouf-122">
          <mxGeometry relative="1" as="geometry" />
        </mxCell>
        <mxCell id="LAP7pbj2NF0N0nWJ8ouf-131" style="rounded=0;orthogonalLoop=1;jettySize=auto;html=1;exitX=0.75;exitY=0;exitDx=0;exitDy=0;entryX=0.5;entryY=1;entryDx=0;entryDy=0;" edge="1" parent="1" source="LAP7pbj2NF0N0nWJ8ouf-104" target="LAP7pbj2NF0N0nWJ8ouf-126">
          <mxGeometry relative="1" as="geometry" />
        </mxCell>
        <mxCell id="LAP7pbj2NF0N0nWJ8ouf-132" style="rounded=0;orthogonalLoop=1;jettySize=auto;html=1;exitX=1;exitY=0;exitDx=0;exitDy=0;" edge="1" parent="1" source="LAP7pbj2NF0N0nWJ8ouf-104" target="LAP7pbj2NF0N0nWJ8ouf-121">
          <mxGeometry relative="1" as="geometry" />
        </mxCell>
        <mxCell id="LAP7pbj2NF0N0nWJ8ouf-136" style="rounded=0;orthogonalLoop=1;jettySize=auto;html=1;exitX=0;exitY=0.75;exitDx=0;exitDy=0;entryX=1;entryY=0.5;entryDx=0;entryDy=0;" edge="1" parent="1" source="LAP7pbj2NF0N0nWJ8ouf-104" target="LAP7pbj2NF0N0nWJ8ouf-125">
          <mxGeometry relative="1" as="geometry" />
        </mxCell>
        <mxCell id="LAP7pbj2NF0N0nWJ8ouf-137" style="rounded=0;orthogonalLoop=1;jettySize=auto;html=1;exitX=1;exitY=0.75;exitDx=0;exitDy=0;entryX=0;entryY=0.5;entryDx=0;entryDy=0;" edge="1" parent="1" source="LAP7pbj2NF0N0nWJ8ouf-104" target="LAP7pbj2NF0N0nWJ8ouf-123">
          <mxGeometry relative="1" as="geometry" />
        </mxCell>
        <mxCell id="LAP7pbj2NF0N0nWJ8ouf-104" value="&lt;b style=&quot;border-color: var(--border-color);&quot;&gt;&lt;font style=&quot;border-color: var(--border-color); font-size: 20px;&quot;&gt;Farmers&lt;/font&gt;&lt;/b&gt;" style="whiteSpace=wrap;html=1;rounded=0;" vertex="1" parent="1">
          <mxGeometry x="580" y="-960" width="120" height="40" as="geometry" />
        </mxCell>
        <mxCell id="LAP7pbj2NF0N0nWJ8ouf-109" value="" style="edgeStyle=orthogonalEdgeStyle;rounded=0;orthogonalLoop=1;jettySize=auto;html=1;endArrow=ERoneToMany;endFill=0;" edge="1" parent="1" source="LAP7pbj2NF0N0nWJ8ouf-106" target="LAP7pbj2NF0N0nWJ8ouf-108">
          <mxGeometry relative="1" as="geometry" />
        </mxCell>
        <mxCell id="LAP7pbj2NF0N0nWJ8ouf-106" value="donate" style="rhombus;whiteSpace=wrap;html=1;rounded=0;" vertex="1" parent="1">
          <mxGeometry x="405" y="-687.5" width="60" height="55" as="geometry" />
        </mxCell>
        <mxCell id="LAP7pbj2NF0N0nWJ8ouf-171" style="edgeStyle=orthogonalEdgeStyle;rounded=0;orthogonalLoop=1;jettySize=auto;html=1;exitX=0;exitY=0.5;exitDx=0;exitDy=0;entryX=1;entryY=0.5;entryDx=0;entryDy=0;" edge="1" parent="1" source="LAP7pbj2NF0N0nWJ8ouf-108" target="LAP7pbj2NF0N0nWJ8ouf-169">
          <mxGeometry relative="1" as="geometry" />
        </mxCell>
        <mxCell id="LAP7pbj2NF0N0nWJ8ouf-172" style="rounded=0;orthogonalLoop=1;jettySize=auto;html=1;exitX=0.75;exitY=0;exitDx=0;exitDy=0;entryX=0.5;entryY=1;entryDx=0;entryDy=0;" edge="1" parent="1" source="LAP7pbj2NF0N0nWJ8ouf-108" target="LAP7pbj2NF0N0nWJ8ouf-166">
          <mxGeometry relative="1" as="geometry" />
        </mxCell>
        <mxCell id="LAP7pbj2NF0N0nWJ8ouf-173" style="rounded=0;orthogonalLoop=1;jettySize=auto;html=1;exitX=0.25;exitY=0;exitDx=0;exitDy=0;entryX=0.5;entryY=1;entryDx=0;entryDy=0;" edge="1" parent="1" source="LAP7pbj2NF0N0nWJ8ouf-108" target="LAP7pbj2NF0N0nWJ8ouf-170">
          <mxGeometry relative="1" as="geometry" />
        </mxCell>
        <mxCell id="LAP7pbj2NF0N0nWJ8ouf-174" style="rounded=0;orthogonalLoop=1;jettySize=auto;html=1;exitX=0;exitY=0;exitDx=0;exitDy=0;entryX=1;entryY=1;entryDx=0;entryDy=0;" edge="1" parent="1" source="LAP7pbj2NF0N0nWJ8ouf-108" target="LAP7pbj2NF0N0nWJ8ouf-167">
          <mxGeometry relative="1" as="geometry" />
        </mxCell>
        <mxCell id="LAP7pbj2NF0N0nWJ8ouf-176" style="rounded=0;orthogonalLoop=1;jettySize=auto;html=1;exitX=0.5;exitY=1;exitDx=0;exitDy=0;entryX=0.5;entryY=0;entryDx=0;entryDy=0;" edge="1" parent="1" source="LAP7pbj2NF0N0nWJ8ouf-108" target="LAP7pbj2NF0N0nWJ8ouf-168">
          <mxGeometry relative="1" as="geometry" />
        </mxCell>
        <mxCell id="LAP7pbj2NF0N0nWJ8ouf-190" style="rounded=0;orthogonalLoop=1;jettySize=auto;html=1;exitX=0.25;exitY=1;exitDx=0;exitDy=0;entryX=1;entryY=0;entryDx=0;entryDy=0;" edge="1" parent="1" source="LAP7pbj2NF0N0nWJ8ouf-108" target="LAP7pbj2NF0N0nWJ8ouf-165">
          <mxGeometry relative="1" as="geometry" />
        </mxCell>
        <mxCell id="LAP7pbj2NF0N0nWJ8ouf-108" value="&lt;b style=&quot;border-color: var(--border-color);&quot;&gt;&lt;font style=&quot;border-color: var(--border-color); font-size: 20px;&quot;&gt;Donors&lt;/font&gt;&lt;/b&gt;" style="whiteSpace=wrap;html=1;rounded=0;" vertex="1" parent="1">
          <mxGeometry x="160" y="-680" width="120" height="40" as="geometry" />
        </mxCell>
        <mxCell id="LAP7pbj2NF0N0nWJ8ouf-121" value="farmer_&lt;br&gt;profile_img" style="ellipse;whiteSpace=wrap;html=1;" vertex="1" parent="1">
          <mxGeometry x="742.5" y="-1020" width="82.5" height="50" as="geometry" />
        </mxCell>
        <mxCell id="LAP7pbj2NF0N0nWJ8ouf-122" value="farmer&lt;br&gt;_address" style="ellipse;whiteSpace=wrap;html=1;" vertex="1" parent="1">
          <mxGeometry x="540" y="-1070" width="92.5" height="50" as="geometry" />
        </mxCell>
        <mxCell id="LAP7pbj2NF0N0nWJ8ouf-123" value="farmer_email" style="ellipse;whiteSpace=wrap;html=1;" vertex="1" parent="1">
          <mxGeometry x="740" y="-930" width="85" height="50" as="geometry" />
        </mxCell>
        <mxCell id="LAP7pbj2NF0N0nWJ8ouf-124" value="farmer_name" style="ellipse;whiteSpace=wrap;html=1;" vertex="1" parent="1">
          <mxGeometry x="470" y="-1020" width="86.25" height="50" as="geometry" />
        </mxCell>
        <mxCell id="LAP7pbj2NF0N0nWJ8ouf-125" value="&lt;u&gt;&lt;b&gt;farmer_id&lt;/b&gt;&lt;/u&gt;" style="ellipse;whiteSpace=wrap;html=1;" vertex="1" parent="1">
          <mxGeometry x="448.75" y="-940" width="82.5" height="50" as="geometry" />
        </mxCell>
        <mxCell id="LAP7pbj2NF0N0nWJ8ouf-126" value="farmer_&lt;br&gt;contact_no" style="ellipse;whiteSpace=wrap;html=1;" vertex="1" parent="1">
          <mxGeometry x="660" y="-1070" width="90" height="50" as="geometry" />
        </mxCell>
        <mxCell id="LAP7pbj2NF0N0nWJ8ouf-135" style="rounded=0;orthogonalLoop=1;jettySize=auto;html=1;exitX=0;exitY=0;exitDx=0;exitDy=0;entryX=0.774;entryY=0.92;entryDx=0;entryDy=0;entryPerimeter=0;" edge="1" parent="1" source="LAP7pbj2NF0N0nWJ8ouf-104" target="LAP7pbj2NF0N0nWJ8ouf-124">
          <mxGeometry relative="1" as="geometry" />
        </mxCell>
        <mxCell id="LAP7pbj2NF0N0nWJ8ouf-165" value="donor_&lt;br&gt;contact_no" style="ellipse;whiteSpace=wrap;html=1;" vertex="1" parent="1">
          <mxGeometry x="48.75" y="-600" width="92.5" height="50" as="geometry" />
        </mxCell>
        <mxCell id="LAP7pbj2NF0N0nWJ8ouf-166" value="&lt;b&gt;&lt;u&gt;donor_id&lt;/u&gt;&lt;/b&gt;" style="ellipse;whiteSpace=wrap;html=1;" vertex="1" parent="1">
          <mxGeometry x="257.5" y="-780" width="82.5" height="50" as="geometry" />
        </mxCell>
        <mxCell id="LAP7pbj2NF0N0nWJ8ouf-167" value="donor_email" style="ellipse;whiteSpace=wrap;html=1;" vertex="1" parent="1">
          <mxGeometry x="40" y="-770" width="82.5" height="50" as="geometry" />
        </mxCell>
        <mxCell id="LAP7pbj2NF0N0nWJ8ouf-168" value="donor_&lt;br&gt;profile_img" style="ellipse;whiteSpace=wrap;html=1;" vertex="1" parent="1">
          <mxGeometry x="173.75" y="-580" width="92.5" height="50" as="geometry" />
        </mxCell>
        <mxCell id="LAP7pbj2NF0N0nWJ8ouf-169" value="donor&lt;br&gt;_address" style="ellipse;whiteSpace=wrap;html=1;" vertex="1" parent="1">
          <mxGeometry x="17.5" y="-685" width="82.5" height="50" as="geometry" />
        </mxCell>
        <mxCell id="LAP7pbj2NF0N0nWJ8ouf-170" value="donor_name" style="ellipse;whiteSpace=wrap;html=1;" vertex="1" parent="1">
          <mxGeometry x="150" y="-800" width="82.5" height="50" as="geometry" />
        </mxCell>
        <mxCell id="LAP7pbj2NF0N0nWJ8ouf-177" value="ngo_address" style="ellipse;whiteSpace=wrap;html=1;" vertex="1" parent="1">
          <mxGeometry x="18" y="-390" width="92.5" height="50" as="geometry" />
        </mxCell>
        <mxCell id="LAP7pbj2NF0N0nWJ8ouf-180" value="age" style="ellipse;whiteSpace=wrap;html=1;" vertex="1" parent="1">
          <mxGeometry x="750" y="-400" width="85" height="50" as="geometry" />
        </mxCell>
        <mxCell id="LAP7pbj2NF0N0nWJ8ouf-181" value="ngo_email" style="ellipse;whiteSpace=wrap;html=1;" vertex="1" parent="1">
          <mxGeometry x="18" y="-320" width="92.5" height="50" as="geometry" />
        </mxCell>
        <mxCell id="LAP7pbj2NF0N0nWJ8ouf-182" value="ngo&lt;br&gt;_descriptions" style="ellipse;whiteSpace=wrap;html=1;" vertex="1" parent="1">
          <mxGeometry x="188" y="-460" width="92.5" height="50" as="geometry" />
        </mxCell>
        <mxCell id="LAP7pbj2NF0N0nWJ8ouf-183" value="ngo_logo_img" style="ellipse;whiteSpace=wrap;html=1;" vertex="1" parent="1">
          <mxGeometry x="280.5" y="-420" width="92.5" height="50" as="geometry" />
        </mxCell>
        <mxCell id="LAP7pbj2NF0N0nWJ8ouf-184" value="phone_no" style="ellipse;whiteSpace=wrap;html=1;" vertex="1" parent="1">
          <mxGeometry x="753" y="-310" width="83.75" height="50" as="geometry" />
        </mxCell>
        <mxCell id="LAP7pbj2NF0N0nWJ8ouf-185" value="volunteer&lt;br&gt;_name" style="ellipse;whiteSpace=wrap;html=1;" vertex="1" parent="1">
          <mxGeometry x="567.5" y="-250" width="92.5" height="50" as="geometry" />
        </mxCell>
        <mxCell id="LAP7pbj2NF0N0nWJ8ouf-186" value="volunteer&lt;br&gt;_location" style="ellipse;whiteSpace=wrap;html=1;" vertex="1" parent="1">
          <mxGeometry x="677.5" y="-460" width="92.5" height="50" as="geometry" />
        </mxCell>
        <mxCell id="LAP7pbj2NF0N0nWJ8ouf-187" value="&lt;b&gt;volunteer&lt;br&gt;_id&lt;/b&gt;" style="ellipse;whiteSpace=wrap;html=1;" vertex="1" parent="1">
          <mxGeometry x="465" y="-270" width="91.25" height="50" as="geometry" />
        </mxCell>
        <mxCell id="LAP7pbj2NF0N0nWJ8ouf-188" value="volunteer&lt;br&gt;_profile_img" style="ellipse;whiteSpace=wrap;html=1;" vertex="1" parent="1">
          <mxGeometry x="480" y="-450" width="92.5" height="50" as="geometry" />
        </mxCell>
        <mxCell id="LAP7pbj2NF0N0nWJ8ouf-191" value="established&lt;br&gt;_date" style="ellipse;whiteSpace=wrap;html=1;" vertex="1" parent="1">
          <mxGeometry x="80.5" y="-450" width="92.5" height="50" as="geometry" />
        </mxCell>
        <mxCell id="LAP7pbj2NF0N0nWJ8ouf-192" value="&lt;b&gt;&lt;u&gt;ngo_id&lt;/u&gt;&lt;/b&gt;" style="ellipse;whiteSpace=wrap;html=1;" vertex="1" parent="1">
          <mxGeometry x="278" y="-290" width="92.5" height="50" as="geometry" />
        </mxCell>
        <mxCell id="LAP7pbj2NF0N0nWJ8ouf-193" value="telephone_no" style="ellipse;whiteSpace=wrap;html=1;" vertex="1" parent="1">
          <mxGeometry x="80.5" y="-260" width="92.5" height="50" as="geometry" />
        </mxCell>
        <mxCell id="LAP7pbj2NF0N0nWJ8ouf-194" value="ngo_name" style="ellipse;whiteSpace=wrap;html=1;" vertex="1" parent="1">
          <mxGeometry x="188" y="-250" width="92.5" height="50" as="geometry" />
        </mxCell>
        <mxCell id="LAP7pbj2NF0N0nWJ8ouf-234" value="volunteer&lt;br style=&quot;border-color: var(--border-color);&quot;&gt;_email" style="ellipse;whiteSpace=wrap;html=1;" vertex="1" parent="1">
          <mxGeometry x="677.5" y="-250" width="92.5" height="50" as="geometry" />
        </mxCell>
        <mxCell id="LAP7pbj2NF0N0nWJ8ouf-254" value="food_name" style="ellipse;whiteSpace=wrap;html=1;" vertex="1" parent="1">
          <mxGeometry x="517.5" y="-800" width="92.5" height="50" as="geometry" />
        </mxCell>
        <mxCell id="LAP7pbj2NF0N0nWJ8ouf-255" value="food_quantity" style="ellipse;whiteSpace=wrap;html=1;" vertex="1" parent="1">
          <mxGeometry x="751.25" y="-750" width="92.5" height="50" as="geometry" />
        </mxCell>
        <mxCell id="LAP7pbj2NF0N0nWJ8ouf-256" value="food types" style="ellipse;whiteSpace=wrap;html=1;" vertex="1" parent="1">
          <mxGeometry x="658.75" y="-780" width="92.5" height="50" as="geometry" />
        </mxCell>
        <mxCell id="LAP7pbj2NF0N0nWJ8ouf-257" value="food_&lt;br style=&quot;border-color: var(--border-color);&quot;&gt;descriptions" style="ellipse;whiteSpace=wrap;html=1;" vertex="1" parent="1">
          <mxGeometry x="746.25" y="-680" width="92.5" height="50" as="geometry" />
        </mxCell>
        <mxCell id="LAP7pbj2NF0N0nWJ8ouf-259" value="donate&lt;br style=&quot;border-color: var(--border-color);&quot;&gt;_datetime" style="ellipse;whiteSpace=wrap;html=1;" vertex="1" parent="1">
          <mxGeometry x="746.25" y="-610" width="92.5" height="50" as="geometry" />
        </mxCell>
        <mxCell id="LAP7pbj2NF0N0nWJ8ouf-260" value="donate&lt;br style=&quot;border-color: var(--border-color);&quot;&gt;_location" style="ellipse;whiteSpace=wrap;html=1;" vertex="1" parent="1">
          <mxGeometry x="657.5" y="-570" width="92.5" height="50" as="geometry" />
        </mxCell>
        <mxCell id="LAP7pbj2NF0N0nWJ8ouf-261" value="food_image" style="ellipse;whiteSpace=wrap;html=1;" vertex="1" parent="1">
          <mxGeometry x="470" y="-600" width="92.5" height="50" as="geometry" />
        </mxCell>
        <mxCell id="LAP7pbj2NF0N0nWJ8ouf-268" style="rounded=0;orthogonalLoop=1;jettySize=auto;html=1;exitX=0.75;exitY=1;exitDx=0;exitDy=0;entryX=0.406;entryY=0.059;entryDx=0;entryDy=0;entryPerimeter=0;" edge="1" parent="1" source="LAP7pbj2NF0N0nWJ8ouf-100" target="LAP7pbj2NF0N0nWJ8ouf-260">
          <mxGeometry relative="1" as="geometry" />
        </mxCell>
        <mxCell id="LAP7pbj2NF0N0nWJ8ouf-273" value="&lt;b&gt;&lt;u&gt;food_id&lt;/u&gt;&lt;/b&gt;" style="ellipse;whiteSpace=wrap;html=1;" vertex="1" parent="1">
          <mxGeometry x="438.75" y="-750" width="92.5" height="50" as="geometry" />
        </mxCell>
        <mxCell id="LAP7pbj2NF0N0nWJ8ouf-456" value="" style="endArrow=none;html=1;rounded=0;strokeWidth=1;endSize=6;jumpSize=6;exitX=0;exitY=1;exitDx=0;exitDy=0;" edge="1" parent="1" source="LAP7pbj2NF0N0nWJ8ouf-467">
          <mxGeometry width="50" height="50" relative="1" as="geometry">
            <mxPoint x="140" y="450" as="sourcePoint" />
            <mxPoint x="140" y="270" as="targetPoint" />
          </mxGeometry>
        </mxCell>
        <mxCell id="LAP7pbj2NF0N0nWJ8ouf-457" value="&lt;b&gt;&lt;font style=&quot;font-size: 16px;&quot;&gt;Donors&lt;/font&gt;&lt;/b&gt;" style="swimlane;fontStyle=0;childLayout=stackLayout;horizontal=1;startSize=30;horizontalStack=0;resizeParent=1;resizeParentMax=0;resizeLast=0;collapsible=1;marginBottom=0;whiteSpace=wrap;html=1;" vertex="1" parent="1">
          <mxGeometry x="110" y="240" width="140" height="240" as="geometry" />
        </mxCell>
        <mxCell id="LAP7pbj2NF0N0nWJ8ouf-458" value="" style="endArrow=none;html=1;rounded=0;" edge="1" parent="1">
          <mxGeometry width="50" height="50" relative="1" as="geometry">
            <mxPoint x="110" y="300" as="sourcePoint" />
            <mxPoint x="250" y="300" as="targetPoint" />
          </mxGeometry>
        </mxCell>
        <mxCell id="LAP7pbj2NF0N0nWJ8ouf-459" value="&lt;b&gt;PK&lt;/b&gt;" style="text;html=1;strokeColor=none;fillColor=none;align=center;verticalAlign=middle;whiteSpace=wrap;rounded=0;" vertex="1" parent="1">
          <mxGeometry x="110" y="270" width="30" height="30" as="geometry" />
        </mxCell>
        <mxCell id="LAP7pbj2NF0N0nWJ8ouf-460" value="donor_name" style="text;html=1;strokeColor=none;fillColor=none;align=center;verticalAlign=middle;whiteSpace=wrap;rounded=0;" vertex="1" parent="1">
          <mxGeometry x="140" y="300" width="110" height="30" as="geometry" />
        </mxCell>
        <mxCell id="LAP7pbj2NF0N0nWJ8ouf-461" value="donor_profile_img" style="text;html=1;strokeColor=none;fillColor=none;align=center;verticalAlign=middle;whiteSpace=wrap;rounded=0;" vertex="1" parent="1">
          <mxGeometry x="140" y="420" width="110" height="30" as="geometry" />
        </mxCell>
        <mxCell id="LAP7pbj2NF0N0nWJ8ouf-462" value="donor_address" style="text;html=1;strokeColor=none;fillColor=none;align=center;verticalAlign=middle;whiteSpace=wrap;rounded=0;" vertex="1" parent="1">
          <mxGeometry x="140" y="390" width="110" height="30" as="geometry" />
        </mxCell>
        <mxCell id="LAP7pbj2NF0N0nWJ8ouf-463" style="edgeStyle=orthogonalEdgeStyle;rounded=0;orthogonalLoop=1;jettySize=auto;html=1;exitX=1;exitY=0.5;exitDx=0;exitDy=0;entryX=0;entryY=0.5;entryDx=0;entryDy=0;endArrow=ERzeroToMany;endFill=0;startArrow=ERoneToMany;startFill=0;" edge="1" parent="1" source="LAP7pbj2NF0N0nWJ8ouf-464" target="LAP7pbj2NF0N0nWJ8ouf-482">
          <mxGeometry relative="1" as="geometry" />
        </mxCell>
        <mxCell id="LAP7pbj2NF0N0nWJ8ouf-464" value="donor_id" style="text;html=1;strokeColor=none;fillColor=none;align=center;verticalAlign=middle;whiteSpace=wrap;rounded=0;" vertex="1" parent="1">
          <mxGeometry x="140" y="270" width="110" height="30" as="geometry" />
        </mxCell>
        <mxCell id="LAP7pbj2NF0N0nWJ8ouf-465" value="donor_contact_no" style="text;html=1;strokeColor=none;fillColor=none;align=center;verticalAlign=middle;whiteSpace=wrap;rounded=0;" vertex="1" parent="1">
          <mxGeometry x="140" y="330" width="110" height="30" as="geometry" />
        </mxCell>
        <mxCell id="LAP7pbj2NF0N0nWJ8ouf-466" value="donor_email" style="text;html=1;strokeColor=none;fillColor=none;align=center;verticalAlign=middle;whiteSpace=wrap;rounded=0;" vertex="1" parent="1">
          <mxGeometry x="140" y="360" width="110" height="30" as="geometry" />
        </mxCell>
        <mxCell id="LAP7pbj2NF0N0nWJ8ouf-467" value="food_id" style="text;html=1;strokeColor=none;fillColor=none;align=center;verticalAlign=middle;whiteSpace=wrap;rounded=0;" vertex="1" parent="1">
          <mxGeometry x="140" y="450" width="110" height="30" as="geometry" />
        </mxCell>
        <mxCell id="LAP7pbj2NF0N0nWJ8ouf-468" value="" style="endArrow=none;html=1;rounded=0;entryX=1;entryY=0;entryDx=0;entryDy=0;" edge="1" parent="1" target="LAP7pbj2NF0N0nWJ8ouf-467">
          <mxGeometry width="50" height="50" relative="1" as="geometry">
            <mxPoint x="110" y="450" as="sourcePoint" />
            <mxPoint x="190" y="420" as="targetPoint" />
          </mxGeometry>
        </mxCell>
        <mxCell id="LAP7pbj2NF0N0nWJ8ouf-469" value="FK" style="text;html=1;strokeColor=none;fillColor=none;align=center;verticalAlign=middle;whiteSpace=wrap;rounded=0;" vertex="1" parent="1">
          <mxGeometry x="110" y="450" width="30" height="30" as="geometry" />
        </mxCell>
        <mxCell id="LAP7pbj2NF0N0nWJ8ouf-470" value="" style="endArrow=none;html=1;rounded=0;strokeWidth=1;endSize=6;jumpSize=6;exitX=1;exitY=1;exitDx=0;exitDy=0;" edge="1" parent="1" source="LAP7pbj2NF0N0nWJ8ouf-490">
          <mxGeometry width="50" height="50" relative="1" as="geometry">
            <mxPoint x="410" y="610.5228917738971" as="sourcePoint" />
            <mxPoint x="410" y="220" as="targetPoint" />
          </mxGeometry>
        </mxCell>
        <mxCell id="LAP7pbj2NF0N0nWJ8ouf-471" value="&lt;b&gt;&lt;font style=&quot;font-size: 16px;&quot;&gt;Food_Items&lt;/font&gt;&lt;/b&gt;" style="swimlane;fontStyle=0;childLayout=stackLayout;horizontal=1;startSize=30;horizontalStack=0;resizeParent=1;resizeParentMax=0;resizeLast=0;collapsible=1;marginBottom=0;whiteSpace=wrap;html=1;" vertex="1" parent="1">
          <mxGeometry x="380" y="190" width="140" height="360" as="geometry" />
        </mxCell>
        <mxCell id="LAP7pbj2NF0N0nWJ8ouf-472" value="" style="endArrow=none;html=1;rounded=0;" edge="1" parent="1">
          <mxGeometry width="50" height="50" relative="1" as="geometry">
            <mxPoint x="380" y="250" as="sourcePoint" />
            <mxPoint x="520" y="250" as="targetPoint" />
          </mxGeometry>
        </mxCell>
        <mxCell id="LAP7pbj2NF0N0nWJ8ouf-473" value="&lt;b&gt;PK&lt;/b&gt;" style="text;html=1;strokeColor=none;fillColor=none;align=center;verticalAlign=middle;whiteSpace=wrap;rounded=0;" vertex="1" parent="1">
          <mxGeometry x="380" y="220" width="30" height="30" as="geometry" />
        </mxCell>
        <mxCell id="LAP7pbj2NF0N0nWJ8ouf-474" value="food_name" style="text;html=1;strokeColor=none;fillColor=none;align=center;verticalAlign=middle;whiteSpace=wrap;rounded=0;" vertex="1" parent="1">
          <mxGeometry x="410" y="250" width="110" height="30" as="geometry" />
        </mxCell>
        <mxCell id="LAP7pbj2NF0N0nWJ8ouf-475" value="food_descriptions" style="text;html=1;strokeColor=none;fillColor=none;align=center;verticalAlign=middle;whiteSpace=wrap;rounded=0;" vertex="1" parent="1">
          <mxGeometry x="410" y="340" width="110" height="30" as="geometry" />
        </mxCell>
        <mxCell id="LAP7pbj2NF0N0nWJ8ouf-476" style="edgeStyle=orthogonalEdgeStyle;rounded=0;orthogonalLoop=1;jettySize=auto;html=1;exitX=1;exitY=0.5;exitDx=0;exitDy=0;entryX=0;entryY=0.5;entryDx=0;entryDy=0;endArrow=ERmandOne;endFill=0;startArrow=ERmandOne;startFill=0;" edge="1" parent="1" source="LAP7pbj2NF0N0nWJ8ouf-477" target="LAP7pbj2NF0N0nWJ8ouf-529">
          <mxGeometry relative="1" as="geometry" />
        </mxCell>
        <mxCell id="LAP7pbj2NF0N0nWJ8ouf-477" value="food_id" style="text;html=1;strokeColor=none;fillColor=none;align=center;verticalAlign=middle;whiteSpace=wrap;rounded=0;" vertex="1" parent="1">
          <mxGeometry x="410" y="220" width="110" height="30" as="geometry" />
        </mxCell>
        <mxCell id="LAP7pbj2NF0N0nWJ8ouf-478" value="food types" style="text;html=1;strokeColor=none;fillColor=none;align=center;verticalAlign=middle;whiteSpace=wrap;rounded=0;" vertex="1" parent="1">
          <mxGeometry x="410" y="280" width="110" height="30" as="geometry" />
        </mxCell>
        <mxCell id="LAP7pbj2NF0N0nWJ8ouf-479" value="food_quantity" style="text;html=1;strokeColor=none;fillColor=none;align=center;verticalAlign=middle;whiteSpace=wrap;rounded=0;" vertex="1" parent="1">
          <mxGeometry x="410" y="310" width="110" height="30" as="geometry" />
        </mxCell>
        <mxCell id="LAP7pbj2NF0N0nWJ8ouf-480" value="food_image" style="text;html=1;strokeColor=none;fillColor=none;align=center;verticalAlign=middle;whiteSpace=wrap;rounded=0;" vertex="1" parent="1">
          <mxGeometry x="410" y="430" width="110" height="30" as="geometry" />
        </mxCell>
        <mxCell id="LAP7pbj2NF0N0nWJ8ouf-481" value="" style="endArrow=none;html=1;rounded=0;" edge="1" parent="1">
          <mxGeometry width="50" height="50" relative="1" as="geometry">
            <mxPoint x="380" y="490" as="sourcePoint" />
            <mxPoint x="520" y="490" as="targetPoint" />
          </mxGeometry>
        </mxCell>
        <mxCell id="LAP7pbj2NF0N0nWJ8ouf-482" value="FK" style="text;html=1;strokeColor=none;fillColor=none;align=center;verticalAlign=middle;whiteSpace=wrap;rounded=0;" vertex="1" parent="1">
          <mxGeometry x="380" y="460" width="30" height="30" as="geometry" />
        </mxCell>
        <mxCell id="LAP7pbj2NF0N0nWJ8ouf-483" value="donate_datetime" style="text;html=1;strokeColor=none;fillColor=none;align=center;verticalAlign=middle;whiteSpace=wrap;rounded=0;" vertex="1" parent="1">
          <mxGeometry x="410" y="370" width="110" height="30" as="geometry" />
        </mxCell>
        <mxCell id="LAP7pbj2NF0N0nWJ8ouf-484" value="donate_location" style="text;html=1;strokeColor=none;fillColor=none;align=center;verticalAlign=middle;whiteSpace=wrap;rounded=0;" vertex="1" parent="1">
          <mxGeometry x="410" y="400" width="110" height="30" as="geometry" />
        </mxCell>
        <mxCell id="LAP7pbj2NF0N0nWJ8ouf-485" value="" style="endArrow=none;html=1;rounded=0;exitX=0;exitY=1;exitDx=0;exitDy=0;entryX=1;entryY=1;entryDx=0;entryDy=0;" edge="1" parent="1" source="LAP7pbj2NF0N0nWJ8ouf-489" target="LAP7pbj2NF0N0nWJ8ouf-488">
          <mxGeometry width="50" height="50" relative="1" as="geometry">
            <mxPoint x="470" y="519.35" as="sourcePoint" />
            <mxPoint x="610" y="519.35" as="targetPoint" />
          </mxGeometry>
        </mxCell>
        <mxCell id="LAP7pbj2NF0N0nWJ8ouf-486" value="donor_id" style="text;html=1;strokeColor=none;fillColor=none;align=center;verticalAlign=middle;whiteSpace=wrap;rounded=0;" vertex="1" parent="1">
          <mxGeometry x="410" y="460" width="110" height="30" as="geometry" />
        </mxCell>
        <mxCell id="LAP7pbj2NF0N0nWJ8ouf-487" value="farmer_id" style="text;html=1;strokeColor=none;fillColor=none;align=center;verticalAlign=middle;whiteSpace=wrap;rounded=0;" vertex="1" parent="1">
          <mxGeometry x="410" y="520" width="110" height="30" as="geometry" />
        </mxCell>
        <mxCell id="LAP7pbj2NF0N0nWJ8ouf-488" value="volunteer_id" style="text;html=1;strokeColor=none;fillColor=none;align=center;verticalAlign=middle;whiteSpace=wrap;rounded=0;" vertex="1" parent="1">
          <mxGeometry x="410" y="490" width="110" height="30" as="geometry" />
        </mxCell>
        <mxCell id="LAP7pbj2NF0N0nWJ8ouf-489" value="FK" style="text;html=1;strokeColor=none;fillColor=none;align=center;verticalAlign=middle;whiteSpace=wrap;rounded=0;" vertex="1" parent="1">
          <mxGeometry x="380" y="490" width="30" height="30" as="geometry" />
        </mxCell>
        <mxCell id="LAP7pbj2NF0N0nWJ8ouf-490" value="FK" style="text;html=1;strokeColor=none;fillColor=none;align=center;verticalAlign=middle;whiteSpace=wrap;rounded=0;" vertex="1" parent="1">
          <mxGeometry x="380" y="520" width="30" height="30" as="geometry" />
        </mxCell>
        <mxCell id="LAP7pbj2NF0N0nWJ8ouf-491" value="" style="endArrow=none;html=1;rounded=0;exitX=0;exitY=0;exitDx=0;exitDy=0;entryX=1;entryY=1;entryDx=0;entryDy=0;" edge="1" parent="1" source="LAP7pbj2NF0N0nWJ8ouf-482">
          <mxGeometry width="50" height="50" relative="1" as="geometry">
            <mxPoint x="380" y="470" as="sourcePoint" />
            <mxPoint x="520" y="460" as="targetPoint" />
          </mxGeometry>
        </mxCell>
        <mxCell id="LAP7pbj2NF0N0nWJ8ouf-492" value="" style="endArrow=none;html=1;rounded=0;strokeWidth=1;endSize=6;jumpSize=6;exitX=0;exitY=1;exitDx=0;exitDy=0;" edge="1" parent="1" source="LAP7pbj2NF0N0nWJ8ouf-497">
          <mxGeometry width="50" height="50" relative="1" as="geometry">
            <mxPoint x="140" y="790" as="sourcePoint" />
            <mxPoint x="140" y="580" as="targetPoint" />
          </mxGeometry>
        </mxCell>
        <mxCell id="LAP7pbj2NF0N0nWJ8ouf-493" value="&lt;b&gt;&lt;font style=&quot;font-size: 16px;&quot;&gt;Farmers&lt;/font&gt;&lt;/b&gt;" style="swimlane;fontStyle=0;childLayout=stackLayout;horizontal=1;startSize=30;horizontalStack=0;resizeParent=1;resizeParentMax=0;resizeLast=0;collapsible=1;marginBottom=0;whiteSpace=wrap;html=1;" vertex="1" parent="1">
          <mxGeometry x="110" y="550" width="140" height="210" as="geometry" />
        </mxCell>
        <mxCell id="LAP7pbj2NF0N0nWJ8ouf-494" value="" style="endArrow=none;html=1;rounded=0;" edge="1" parent="1">
          <mxGeometry width="50" height="50" relative="1" as="geometry">
            <mxPoint x="110" y="610" as="sourcePoint" />
            <mxPoint x="250" y="610" as="targetPoint" />
          </mxGeometry>
        </mxCell>
        <mxCell id="LAP7pbj2NF0N0nWJ8ouf-495" value="&lt;b&gt;PK&lt;/b&gt;" style="text;html=1;strokeColor=none;fillColor=none;align=center;verticalAlign=middle;whiteSpace=wrap;rounded=0;" vertex="1" parent="1">
          <mxGeometry x="110" y="580" width="30" height="30" as="geometry" />
        </mxCell>
        <mxCell id="LAP7pbj2NF0N0nWJ8ouf-496" value="farmer_name" style="text;html=1;strokeColor=none;fillColor=none;align=center;verticalAlign=middle;whiteSpace=wrap;rounded=0;" vertex="1" parent="1">
          <mxGeometry x="140" y="610" width="110" height="30" as="geometry" />
        </mxCell>
        <mxCell id="LAP7pbj2NF0N0nWJ8ouf-497" value="farmer_profile_img" style="text;html=1;strokeColor=none;fillColor=none;align=center;verticalAlign=middle;whiteSpace=wrap;rounded=0;" vertex="1" parent="1">
          <mxGeometry x="140" y="730" width="110" height="30" as="geometry" />
        </mxCell>
        <mxCell id="LAP7pbj2NF0N0nWJ8ouf-498" value="farmer_address" style="text;html=1;strokeColor=none;fillColor=none;align=center;verticalAlign=middle;whiteSpace=wrap;rounded=0;" vertex="1" parent="1">
          <mxGeometry x="140" y="700" width="110" height="30" as="geometry" />
        </mxCell>
        <mxCell id="LAP7pbj2NF0N0nWJ8ouf-499" style="edgeStyle=orthogonalEdgeStyle;rounded=0;orthogonalLoop=1;jettySize=auto;html=1;exitX=1;exitY=0.5;exitDx=0;exitDy=0;entryX=0;entryY=0.5;entryDx=0;entryDy=0;endArrow=ERzeroToMany;endFill=0;startArrow=ERzeroToMany;startFill=0;" edge="1" parent="1" source="LAP7pbj2NF0N0nWJ8ouf-500" target="LAP7pbj2NF0N0nWJ8ouf-490">
          <mxGeometry relative="1" as="geometry" />
        </mxCell>
        <mxCell id="LAP7pbj2NF0N0nWJ8ouf-500" value="farmer_id" style="text;html=1;strokeColor=none;fillColor=none;align=center;verticalAlign=middle;whiteSpace=wrap;rounded=0;" vertex="1" parent="1">
          <mxGeometry x="140" y="580" width="110" height="30" as="geometry" />
        </mxCell>
        <mxCell id="LAP7pbj2NF0N0nWJ8ouf-501" value="farmer_contact_no" style="text;html=1;strokeColor=none;fillColor=none;align=center;verticalAlign=middle;whiteSpace=wrap;rounded=0;" vertex="1" parent="1">
          <mxGeometry x="140" y="640" width="110" height="30" as="geometry" />
        </mxCell>
        <mxCell id="LAP7pbj2NF0N0nWJ8ouf-502" value="farmer_email" style="text;html=1;strokeColor=none;fillColor=none;align=center;verticalAlign=middle;whiteSpace=wrap;rounded=0;" vertex="1" parent="1">
          <mxGeometry x="140" y="670" width="110" height="30" as="geometry" />
        </mxCell>
        <mxCell id="LAP7pbj2NF0N0nWJ8ouf-503" value="" style="endArrow=none;html=1;rounded=0;strokeWidth=1;endSize=6;jumpSize=6;exitX=0;exitY=1;exitDx=0;exitDy=0;" edge="1" parent="1" source="LAP7pbj2NF0N0nWJ8ouf-515">
          <mxGeometry width="50" height="50" relative="1" as="geometry">
            <mxPoint x="620" y="715" as="sourcePoint" />
            <mxPoint x="620" y="535" as="targetPoint" />
          </mxGeometry>
        </mxCell>
        <mxCell id="LAP7pbj2NF0N0nWJ8ouf-504" value="&lt;b&gt;&lt;font style=&quot;font-size: 16px;&quot;&gt;Volunteers&lt;/font&gt;&lt;/b&gt;" style="swimlane;fontStyle=0;childLayout=stackLayout;horizontal=1;startSize=30;horizontalStack=0;resizeParent=1;resizeParentMax=0;resizeLast=0;collapsible=1;marginBottom=0;whiteSpace=wrap;html=1;" vertex="1" parent="1">
          <mxGeometry x="590" y="505" width="160" height="240" as="geometry" />
        </mxCell>
        <mxCell id="LAP7pbj2NF0N0nWJ8ouf-505" value="" style="endArrow=none;html=1;rounded=0;entryX=1;entryY=1;entryDx=0;entryDy=0;" edge="1" parent="1" target="LAP7pbj2NF0N0nWJ8ouf-512">
          <mxGeometry width="50" height="50" relative="1" as="geometry">
            <mxPoint x="590" y="565" as="sourcePoint" />
            <mxPoint x="730" y="565" as="targetPoint" />
          </mxGeometry>
        </mxCell>
        <mxCell id="LAP7pbj2NF0N0nWJ8ouf-506" style="edgeStyle=orthogonalEdgeStyle;rounded=0;orthogonalLoop=1;jettySize=auto;html=1;exitX=0;exitY=0.5;exitDx=0;exitDy=0;entryX=1;entryY=0.5;entryDx=0;entryDy=0;endArrow=ERzeroToMany;endFill=0;startArrow=ERone;startFill=0;" edge="1" parent="1" source="LAP7pbj2NF0N0nWJ8ouf-507" target="LAP7pbj2NF0N0nWJ8ouf-488">
          <mxGeometry relative="1" as="geometry" />
        </mxCell>
        <mxCell id="LAP7pbj2NF0N0nWJ8ouf-507" value="&lt;b&gt;PK&lt;/b&gt;" style="text;html=1;strokeColor=none;fillColor=none;align=center;verticalAlign=middle;whiteSpace=wrap;rounded=0;" vertex="1" parent="1">
          <mxGeometry x="590" y="535" width="30" height="25" as="geometry" />
        </mxCell>
        <mxCell id="LAP7pbj2NF0N0nWJ8ouf-508" value="volunteer_name" style="text;html=1;strokeColor=none;fillColor=none;align=center;verticalAlign=middle;whiteSpace=wrap;rounded=0;" vertex="1" parent="1">
          <mxGeometry x="620" y="565" width="130" height="30" as="geometry" />
        </mxCell>
        <mxCell id="LAP7pbj2NF0N0nWJ8ouf-509" value="volunteer_profile_img" style="text;html=1;strokeColor=none;fillColor=none;align=center;verticalAlign=middle;whiteSpace=wrap;rounded=0;" vertex="1" parent="1">
          <mxGeometry x="620" y="685" width="130" height="30" as="geometry" />
        </mxCell>
        <mxCell id="LAP7pbj2NF0N0nWJ8ouf-510" value="vlounteer_location" style="text;html=1;strokeColor=none;fillColor=none;align=center;verticalAlign=middle;whiteSpace=wrap;rounded=0;" vertex="1" parent="1">
          <mxGeometry x="620" y="655" width="130" height="30" as="geometry" />
        </mxCell>
        <mxCell id="LAP7pbj2NF0N0nWJ8ouf-511" style="edgeStyle=orthogonalEdgeStyle;rounded=0;orthogonalLoop=1;jettySize=auto;html=1;exitX=1;exitY=0.5;exitDx=0;exitDy=0;entryX=0;entryY=0.5;entryDx=0;entryDy=0;startArrow=ERoneToMany;startFill=0;endArrow=ERmandOne;endFill=0;" edge="1" parent="1" source="LAP7pbj2NF0N0nWJ8ouf-512" target="LAP7pbj2NF0N0nWJ8ouf-532">
          <mxGeometry relative="1" as="geometry">
            <Array as="points">
              <mxPoint x="790" y="550" />
              <mxPoint x="790" y="470" />
              <mxPoint x="630" y="470" />
              <mxPoint x="630" y="415" />
            </Array>
          </mxGeometry>
        </mxCell>
        <mxCell id="LAP7pbj2NF0N0nWJ8ouf-512" value="volunteer_id" style="text;html=1;strokeColor=none;fillColor=none;align=center;verticalAlign=middle;whiteSpace=wrap;rounded=0;" vertex="1" parent="1">
          <mxGeometry x="620" y="535" width="130" height="30" as="geometry" />
        </mxCell>
        <mxCell id="LAP7pbj2NF0N0nWJ8ouf-513" value="phone_no" style="text;html=1;strokeColor=none;fillColor=none;align=center;verticalAlign=middle;whiteSpace=wrap;rounded=0;" vertex="1" parent="1">
          <mxGeometry x="620" y="595" width="130" height="30" as="geometry" />
        </mxCell>
        <mxCell id="LAP7pbj2NF0N0nWJ8ouf-514" value="volunteer_email" style="text;html=1;strokeColor=none;fillColor=none;align=center;verticalAlign=middle;whiteSpace=wrap;rounded=0;" vertex="1" parent="1">
          <mxGeometry x="620" y="625" width="130" height="30" as="geometry" />
        </mxCell>
        <mxCell id="LAP7pbj2NF0N0nWJ8ouf-515" value="ngo_id" style="text;html=1;strokeColor=none;fillColor=none;align=center;verticalAlign=middle;whiteSpace=wrap;rounded=0;" vertex="1" parent="1">
          <mxGeometry x="620" y="715" width="130" height="30" as="geometry" />
        </mxCell>
        <mxCell id="LAP7pbj2NF0N0nWJ8ouf-516" value="" style="endArrow=none;html=1;rounded=0;entryX=1;entryY=0;entryDx=0;entryDy=0;" edge="1" parent="1" target="LAP7pbj2NF0N0nWJ8ouf-515">
          <mxGeometry width="50" height="50" relative="1" as="geometry">
            <mxPoint x="590" y="715" as="sourcePoint" />
            <mxPoint x="670" y="685" as="targetPoint" />
          </mxGeometry>
        </mxCell>
        <mxCell id="LAP7pbj2NF0N0nWJ8ouf-517" value="FK" style="text;html=1;strokeColor=none;fillColor=none;align=center;verticalAlign=middle;whiteSpace=wrap;rounded=0;" vertex="1" parent="1">
          <mxGeometry x="590" y="715" width="30" height="30" as="geometry" />
        </mxCell>
        <mxCell id="LAP7pbj2NF0N0nWJ8ouf-518" value="" style="endArrow=none;html=1;rounded=0;strokeWidth=1;endSize=6;jumpSize=6;exitX=1;exitY=1;exitDx=0;exitDy=0;" edge="1" parent="1" source="LAP7pbj2NF0N0nWJ8ouf-532">
          <mxGeometry width="50" height="50" relative="1" as="geometry">
            <mxPoint x="690" y="400" as="sourcePoint" />
            <mxPoint x="690" y="220" as="targetPoint" />
          </mxGeometry>
        </mxCell>
        <mxCell id="LAP7pbj2NF0N0nWJ8ouf-519" value="&lt;b&gt;&lt;font style=&quot;font-size: 16px;&quot;&gt;Notifications&lt;/font&gt;&lt;/b&gt;" style="swimlane;fontStyle=0;childLayout=stackLayout;horizontal=1;startSize=30;horizontalStack=0;resizeParent=1;resizeParentMax=0;resizeLast=0;collapsible=1;marginBottom=0;whiteSpace=wrap;html=1;" vertex="1" parent="1">
          <mxGeometry x="660" y="190" width="140" height="240" as="geometry" />
        </mxCell>
        <mxCell id="LAP7pbj2NF0N0nWJ8ouf-520" value="" style="endArrow=none;html=1;rounded=0;" edge="1" parent="1">
          <mxGeometry width="50" height="50" relative="1" as="geometry">
            <mxPoint x="660" y="250" as="sourcePoint" />
            <mxPoint x="800" y="250" as="targetPoint" />
          </mxGeometry>
        </mxCell>
        <mxCell id="LAP7pbj2NF0N0nWJ8ouf-521" value="&lt;b&gt;PK&lt;/b&gt;" style="text;html=1;strokeColor=none;fillColor=none;align=center;verticalAlign=middle;whiteSpace=wrap;rounded=0;" vertex="1" parent="1">
          <mxGeometry x="660" y="220" width="30" height="30" as="geometry" />
        </mxCell>
        <mxCell id="LAP7pbj2NF0N0nWJ8ouf-522" value="title" style="text;html=1;strokeColor=none;fillColor=none;align=center;verticalAlign=middle;whiteSpace=wrap;rounded=0;" vertex="1" parent="1">
          <mxGeometry x="700" y="250" width="100" height="30" as="geometry" />
        </mxCell>
        <mxCell id="LAP7pbj2NF0N0nWJ8ouf-523" value="notify_id" style="text;html=1;strokeColor=none;fillColor=none;align=center;verticalAlign=middle;whiteSpace=wrap;rounded=0;" vertex="1" parent="1">
          <mxGeometry x="690" y="220" width="110" height="30" as="geometry" />
        </mxCell>
        <mxCell id="LAP7pbj2NF0N0nWJ8ouf-524" value="descriptions" style="text;html=1;strokeColor=none;fillColor=none;align=center;verticalAlign=middle;whiteSpace=wrap;rounded=0;" vertex="1" parent="1">
          <mxGeometry x="690" y="280" width="110" height="30" as="geometry" />
        </mxCell>
        <mxCell id="LAP7pbj2NF0N0nWJ8ouf-525" value="farmer_email" style="text;html=1;strokeColor=none;fillColor=none;align=center;verticalAlign=middle;whiteSpace=wrap;rounded=0;" vertex="1" parent="1">
          <mxGeometry x="690" y="310" width="110" height="30" as="geometry" />
        </mxCell>
        <mxCell id="LAP7pbj2NF0N0nWJ8ouf-526" value="notify_date" style="text;html=1;strokeColor=none;fillColor=none;align=center;verticalAlign=middle;whiteSpace=wrap;rounded=0;" vertex="1" parent="1">
          <mxGeometry x="690" y="340" width="110" height="30" as="geometry" />
        </mxCell>
        <mxCell id="LAP7pbj2NF0N0nWJ8ouf-527" value="food_id" style="text;html=1;strokeColor=none;fillColor=none;align=center;verticalAlign=middle;whiteSpace=wrap;rounded=0;" vertex="1" parent="1">
          <mxGeometry x="690" y="370" width="110" height="30" as="geometry" />
        </mxCell>
        <mxCell id="LAP7pbj2NF0N0nWJ8ouf-528" value="" style="endArrow=none;html=1;rounded=0;entryX=1;entryY=0;entryDx=0;entryDy=0;" edge="1" parent="1" target="LAP7pbj2NF0N0nWJ8ouf-527">
          <mxGeometry width="50" height="50" relative="1" as="geometry">
            <mxPoint x="660" y="370" as="sourcePoint" />
            <mxPoint x="740" y="340" as="targetPoint" />
          </mxGeometry>
        </mxCell>
        <mxCell id="LAP7pbj2NF0N0nWJ8ouf-529" value="FK" style="text;html=1;strokeColor=none;fillColor=none;align=center;verticalAlign=middle;whiteSpace=wrap;rounded=0;" vertex="1" parent="1">
          <mxGeometry x="660" y="370" width="30" height="30" as="geometry" />
        </mxCell>
        <mxCell id="LAP7pbj2NF0N0nWJ8ouf-530" value="volunteer_id" style="text;html=1;strokeColor=none;fillColor=none;align=center;verticalAlign=middle;whiteSpace=wrap;rounded=0;" vertex="1" parent="1">
          <mxGeometry x="690" y="400" width="110" height="30" as="geometry" />
        </mxCell>
        <mxCell id="LAP7pbj2NF0N0nWJ8ouf-531" value="" style="endArrow=none;html=1;rounded=0;entryX=1;entryY=0;entryDx=0;entryDy=0;exitX=0;exitY=1;exitDx=0;exitDy=0;" edge="1" parent="1" source="LAP7pbj2NF0N0nWJ8ouf-529" target="LAP7pbj2NF0N0nWJ8ouf-530">
          <mxGeometry width="50" height="50" relative="1" as="geometry">
            <mxPoint x="670" y="380" as="sourcePoint" />
            <mxPoint x="750" y="350" as="targetPoint" />
          </mxGeometry>
        </mxCell>
        <mxCell id="LAP7pbj2NF0N0nWJ8ouf-532" value="FK" style="text;html=1;strokeColor=none;fillColor=none;align=center;verticalAlign=middle;whiteSpace=wrap;rounded=0;" vertex="1" parent="1">
          <mxGeometry x="660" y="400" width="30" height="30" as="geometry" />
        </mxCell>
        <mxCell id="LAP7pbj2NF0N0nWJ8ouf-533" value="" style="endArrow=none;html=1;rounded=0;strokeWidth=1;endSize=6;jumpSize=6;exitX=0;exitY=1;exitDx=0;exitDy=0;" edge="1" parent="1" source="LAP7pbj2NF0N0nWJ8ouf-545">
          <mxGeometry width="50" height="50" relative="1" as="geometry">
            <mxPoint x="400" y="830" as="sourcePoint" />
            <mxPoint x="400" y="620" as="targetPoint" />
          </mxGeometry>
        </mxCell>
        <mxCell id="LAP7pbj2NF0N0nWJ8ouf-534" value="&lt;b&gt;&lt;font style=&quot;font-size: 16px;&quot;&gt;NGOs&lt;/font&gt;&lt;/b&gt;" style="swimlane;fontStyle=0;childLayout=stackLayout;horizontal=1;startSize=30;horizontalStack=0;resizeParent=1;resizeParentMax=0;resizeLast=0;collapsible=1;marginBottom=0;whiteSpace=wrap;html=1;" vertex="1" parent="1">
          <mxGeometry x="370" y="590" width="140" height="270" as="geometry" />
        </mxCell>
        <mxCell id="LAP7pbj2NF0N0nWJ8ouf-535" value="" style="endArrow=none;html=1;rounded=0;" edge="1" parent="1">
          <mxGeometry width="50" height="50" relative="1" as="geometry">
            <mxPoint x="370" y="650" as="sourcePoint" />
            <mxPoint x="510" y="650" as="targetPoint" />
          </mxGeometry>
        </mxCell>
        <mxCell id="LAP7pbj2NF0N0nWJ8ouf-536" value="&lt;b&gt;PK&lt;/b&gt;" style="text;html=1;strokeColor=none;fillColor=none;align=center;verticalAlign=middle;whiteSpace=wrap;rounded=0;" vertex="1" parent="1">
          <mxGeometry x="370" y="620" width="30" height="30" as="geometry" />
        </mxCell>
        <mxCell id="LAP7pbj2NF0N0nWJ8ouf-537" value="ngo_name" style="text;html=1;strokeColor=none;fillColor=none;align=center;verticalAlign=middle;whiteSpace=wrap;rounded=0;" vertex="1" parent="1">
          <mxGeometry x="400" y="650" width="110" height="30" as="geometry" />
        </mxCell>
        <mxCell id="LAP7pbj2NF0N0nWJ8ouf-538" value="established_date" style="text;html=1;strokeColor=none;fillColor=none;align=center;verticalAlign=middle;whiteSpace=wrap;rounded=0;" vertex="1" parent="1">
          <mxGeometry x="410" y="780" width="100" height="20" as="geometry" />
        </mxCell>
        <mxCell id="LAP7pbj2NF0N0nWJ8ouf-539" value="ngo_address" style="text;html=1;strokeColor=none;fillColor=none;align=center;verticalAlign=middle;whiteSpace=wrap;rounded=0;" vertex="1" parent="1">
          <mxGeometry x="400" y="740" width="110" height="30" as="geometry" />
        </mxCell>
        <mxCell id="LAP7pbj2NF0N0nWJ8ouf-540" style="edgeStyle=orthogonalEdgeStyle;rounded=0;orthogonalLoop=1;jettySize=auto;html=1;exitX=1;exitY=0.5;exitDx=0;exitDy=0;entryX=0;entryY=0.5;entryDx=0;entryDy=0;endArrow=ERoneToMany;endFill=0;startArrow=ERmandOne;startFill=0;" edge="1" parent="1" source="LAP7pbj2NF0N0nWJ8ouf-541" target="LAP7pbj2NF0N0nWJ8ouf-517">
          <mxGeometry relative="1" as="geometry" />
        </mxCell>
        <mxCell id="LAP7pbj2NF0N0nWJ8ouf-541" value="ngo_id" style="text;html=1;strokeColor=none;fillColor=none;align=center;verticalAlign=middle;whiteSpace=wrap;rounded=0;" vertex="1" parent="1">
          <mxGeometry x="400" y="620" width="110" height="30" as="geometry" />
        </mxCell>
        <mxCell id="LAP7pbj2NF0N0nWJ8ouf-542" value="telephone_no" style="text;html=1;strokeColor=none;fillColor=none;align=center;verticalAlign=middle;whiteSpace=wrap;rounded=0;" vertex="1" parent="1">
          <mxGeometry x="400" y="680" width="110" height="30" as="geometry" />
        </mxCell>
        <mxCell id="LAP7pbj2NF0N0nWJ8ouf-543" value="ngo_email" style="text;html=1;strokeColor=none;fillColor=none;align=center;verticalAlign=middle;whiteSpace=wrap;rounded=0;" vertex="1" parent="1">
          <mxGeometry x="400" y="710" width="110" height="30" as="geometry" />
        </mxCell>
        <mxCell id="LAP7pbj2NF0N0nWJ8ouf-544" value="ngo_descriptions" style="text;html=1;strokeColor=none;fillColor=none;align=center;verticalAlign=middle;whiteSpace=wrap;rounded=0;" vertex="1" parent="1">
          <mxGeometry x="400" y="800" width="110" height="30" as="geometry" />
        </mxCell>
        <mxCell id="LAP7pbj2NF0N0nWJ8ouf-545" value="ngo_logo_img" style="text;html=1;strokeColor=none;fillColor=none;align=center;verticalAlign=middle;whiteSpace=wrap;rounded=0;" vertex="1" parent="1">
          <mxGeometry x="400" y="830" width="105" height="30" as="geometry" />
        </mxCell>
      </root>
    </mxGraphModel>
  </diagram>
</mxfile>
